<svg width="19" height="29" viewBox="0 0 19 29" fill="none" xmlns="http://www.w3.org/2000/svg">
<g opacity="0.2" filter="url(#filter0_d_186_60)">
<path fill-rule="evenodd" clip-rule="evenodd" d="M12.0663 0L4.00355 12.0923L4 12.1188L4.80628 14.5372L4.84472 14.5564L8.746 13.2562L8.27696 15.1302L8.28022 15.1317L7.77157 17.1646L7.77251 17.165L7.3166 18.9884L7.31666 18.9884L6.87891 20.7391L6.93368 20.7634L14.9965 8.67107L15 8.6446L14.1937 6.22614L14.1553 6.20692L10.2502 7.5084L11.2284 3.59873L11.2275 3.59832L11.6834 1.77501L11.6833 1.77498L12.1211 0.0242352L12.0663 0ZM11.6256 1.75532L12.0196 0.17971L4.06237 12.1136L4.85434 14.4892L8.7635 13.1863L8.86553 12.7787L5.63257 13.8561L5.59412 13.8369L4.92402 11.827L4.92757 11.8005L11.6256 1.75532ZM8.38545 14.9645L8.94206 12.7383L8.94176 12.7381L9.06614 12.241L9.06341 12.2384L9.20201 11.6847L9.16292 11.6485L7.37297 12.2444L7.01681 11.1772L10.6161 5.78448L9.7926 9.07469L9.83169 9.11091L11.6216 8.51495L11.9778 9.5822L8.38545 14.9645ZM7.87483 17.0067L8.34167 15.1396L12.0366 9.60357L12.0402 9.57708L11.6697 8.4669L11.6313 8.44768L9.86502 9.03574L9.98548 8.55444L12.5389 7.70399L13.0531 9.24547L7.87483 17.0067ZM7.41824 18.8327L7.83102 17.1819L13.1119 9.26683L13.1155 9.24034L12.5869 7.65593L12.5485 7.63671L10.0063 8.48344L10.1133 8.05583L13.3578 6.97451L14.0136 8.94151L7.41824 18.8327ZM7.37441 19.008L6.98044 20.5837L14.9376 8.64972L14.1457 6.2742L10.2327 7.57831L10.1308 7.98592L13.3674 6.90723L13.4059 6.92645L14.076 8.93639L14.0724 8.96287L7.37441 19.008ZM11.1252 3.75669L10.663 5.60496L10.6629 5.60489L6.95798 11.1558L6.95443 11.1823L7.32492 12.2925L7.36336 12.3117L9.1296 11.7236L9.00755 12.2112L6.46113 13.0594L5.94689 11.5179L11.1252 3.75669ZM11.5818 1.93064L11.169 3.5815L5.88806 11.4965L5.88451 11.523L6.41307 13.1074L6.45151 13.1266L8.99006 12.2811L8.88302 12.7088L5.64218 13.7889L4.98639 11.8218L11.5818 1.93064Z" fill="url(#paint0_radial_186_60)"/>
<path fill-rule="evenodd" clip-rule="evenodd" d="M12.0663 0L4.00355 12.0923L4 12.1188L4.80628 14.5372L4.84472 14.5564L8.746 13.2562L8.27696 15.1302L8.28022 15.1317L7.77157 17.1646L7.77251 17.165L7.3166 18.9884L7.31666 18.9884L6.87891 20.7391L6.93368 20.7634L14.9965 8.67107L15 8.6446L14.1937 6.22614L14.1553 6.20692L10.2502 7.5084L11.2284 3.59873L11.2275 3.59832L11.6834 1.77501L11.6833 1.77498L12.1211 0.0242352L12.0663 0ZM11.6256 1.75532L12.0196 0.17971L4.06237 12.1136L4.85434 14.4892L8.7635 13.1863L8.86553 12.7787L5.63257 13.8561L5.59412 13.8369L4.92402 11.827L4.92757 11.8005L11.6256 1.75532ZM8.38545 14.9645L8.94206 12.7383L8.94176 12.7381L9.06614 12.241L9.06341 12.2384L9.20201 11.6847L9.16292 11.6485L7.37297 12.2444L7.01681 11.1772L10.6161 5.78448L9.7926 9.07469L9.83169 9.11091L11.6216 8.51495L11.9778 9.5822L8.38545 14.9645ZM7.87483 17.0067L8.34167 15.1396L12.0366 9.60357L12.0402 9.57708L11.6697 8.4669L11.6313 8.44768L9.86502 9.03574L9.98548 8.55444L12.5389 7.70399L13.0531 9.24547L7.87483 17.0067ZM7.41824 18.8327L7.83102 17.1819L13.1119 9.26683L13.1155 9.24034L12.5869 7.65593L12.5485 7.63671L10.0063 8.48344L10.1133 8.05583L13.3578 6.97451L14.0136 8.94151L7.41824 18.8327ZM7.37441 19.008L6.98044 20.5837L14.9376 8.64972L14.1457 6.2742L10.2327 7.57831L10.1308 7.98592L13.3674 6.90723L13.4059 6.92645L14.076 8.93639L14.0724 8.96287L7.37441 19.008ZM11.1252 3.75669L10.663 5.60496L10.6629 5.60489L6.95798 11.1558L6.95443 11.1823L7.32492 12.2925L7.36336 12.3117L9.1296 11.7236L9.00755 12.2112L6.46113 13.0594L5.94689 11.5179L11.1252 3.75669ZM11.5818 1.93064L11.169 3.5815L5.88806 11.4965L5.88451 11.523L6.41307 13.1074L6.45151 13.1266L8.99006 12.2811L8.88302 12.7088L5.64218 13.7889L4.98639 11.8218L11.5818 1.93064Z" fill="url(#paint1_linear_186_60)" fill-opacity="0.5"/>
</g>
<defs>
<filter id="filter0_d_186_60" x="0" y="0" width="19" height="28.7632" filterUnits="userSpaceOnUse" color-interpolation-filters="sRGB">
<feFlood flood-opacity="0" result="BackgroundImageFix"/>
<feColorMatrix in="SourceAlpha" type="matrix" values="0 0 0 0 0 0 0 0 0 0 0 0 0 0 0 0 0 0 127 0" result="hardAlpha"/>
<feOffset dy="4"/>
<feGaussianBlur stdDeviation="2"/>
<feComposite in2="hardAlpha" operator="out"/>
<feColorMatrix type="matrix" values="0 0 0 0 0 0 0 0 0 0 0 0 0 0 0 0 0 0 0.25 0"/>
<feBlend mode="normal" in2="BackgroundImageFix" result="effect1_dropShadow_186_60"/>
<feBlend mode="normal" in="SourceGraphic" in2="effect1_dropShadow_186_60" result="shape"/>
</filter>
<radialGradient id="paint0_radial_186_60" cx="0" cy="0" r="1" gradientUnits="userSpaceOnUse" gradientTransform="translate(9.5 10.3817) rotate(61.4151) scale(5.35084 2.83476)">
<stop offset="0.9998" stop-color="#DA744B"/>
<stop offset="0.9999" stop-color="#DA744B"/>
<stop offset="1" stop-color="#DA744B"/>
</radialGradient>
<linearGradient id="paint1_linear_186_60" x1="4" y1="10.3817" x2="15" y2="10.3817" gradientUnits="userSpaceOnUse">
<stop stop-color="#DA744B"/>
<stop offset="1" stop-color="#DA744B"/>
</linearGradient>
</defs>
</svg>
