<svg width="19" height="19" viewBox="0 0 19 19" fill="none" xmlns="http://www.w3.org/2000/svg">
<path d="M17.0946 7.56489H16.4888V7.53367H9.71928V10.5423H13.9701C13.35 12.2937 11.6836 13.551 9.71928 13.551C7.22698 13.551 5.20629 11.5303 5.20629 9.038C5.20629 6.54571 7.22698 4.52502 9.71928 4.52502C10.8697 4.52502 11.9163 4.95901 12.7133 5.66793L14.8408 3.54043C13.4974 2.28845 11.7005 1.51636 9.71928 1.51636C5.56545 1.51636 2.19763 4.88417 2.19763 9.038C2.19763 13.1918 5.56545 16.5596 9.71928 16.5596C13.8731 16.5596 17.2409 13.1918 17.2409 9.038C17.2409 8.53368 17.189 8.04138 17.0946 7.56489Z" fill="#FFC107"/>
<path d="M3.06494 5.53705L5.53618 7.34939C6.20485 5.69388 7.82426 4.52502 9.71934 4.52502C10.8698 4.52502 11.9164 4.95901 12.7133 5.66793L14.8408 3.54043C13.4975 2.28845 11.7005 1.51636 9.71934 1.51636C6.83028 1.51636 4.32482 3.14743 3.06494 5.53705Z" fill="#FF3D00"/>
<path d="M9.71934 16.5595C11.6622 16.5595 13.4275 15.816 14.7622 14.6069L12.4343 12.637C11.6791 13.209 10.7404 13.5508 9.71934 13.5508C7.76296 13.5508 6.1018 12.3034 5.476 10.5625L3.02319 12.4523C4.26803 14.8882 6.79605 16.5595 9.71934 16.5595Z" fill="#4CAF50"/>
<path d="M17.0947 7.56491H16.4888V7.53369H9.71936V10.5423H13.9702C13.6724 11.3836 13.1312 12.1091 12.4332 12.6375L12.4343 12.6368L14.7622 14.6067C14.5975 14.7564 17.241 12.7988 17.241 9.03802C17.241 8.53369 17.1891 8.0414 17.0947 7.56491Z" fill="#1976D2"/>
</svg>
