<svg width="180" height="240" viewBox="0 0 180 240" fill="none" xmlns="http://www.w3.org/2000/svg">
<path d="M90 158.053L70.64 129.893M90 158.053L68.2933 161.573M90 158.053L109.36 129.893M90 158.053L111.707 161.573M70.64 129.893L90 137.52L109.36 129.893M70.64 129.893L74.7467 103.493M70.64 129.893L55.3867 139.28M74.7467 103.493L70.64 85.8933M74.7467 103.493L67.7067 91.1733L51.28 87.6533M74.7467 103.493L57.1467 99.3867L51.28 87.6533M70.64 85.8933H90H109.36M70.64 85.8933L52.4533 79.44M90 55.3867L45.4133 28.4M90 55.3867L58.9067 48.3467M90 55.3867L134.587 28.4M90 55.3867L121.093 48.3467M45.4133 28.4L58.9067 48.3467M45.4133 28.4L90 14.32L134.587 28.4M45.4133 28.4L41.8933 18.4267M45.4133 28.4L29.5733 53.04M58.9067 48.3467L52.4533 79.44M58.9067 48.3467L41.8933 85.8933M52.4533 79.44L41.8933 85.8933M41.8933 85.8933L39.5467 109.36M41.8933 85.8933L35.44 107.013M41.8933 85.8933L51.28 87.6533M39.5467 109.36L35.44 107.013M39.5467 109.36V137.52M39.5467 109.36L58.9067 121.093L55.3867 139.28M35.44 107.013L39.5467 137.52M39.5467 137.52L62.8589 152.187M55.3867 139.28L62.8589 152.187M68.2933 161.573L64.8968 155.707M68.2933 161.573L67.7067 166.267L72.4 169.787L75.3333 163.333L78.2667 170.96H90H101.733L104.667 163.333L107.6 169.787L112.293 166.267L111.707 161.573M64.8968 155.707L61.84 168.613L70.64 185.04H90H109.36L118.16 168.613L115.103 155.707M64.8968 155.707L62.8589 152.187M41.8933 18.4267L29.5733 23.7067L18.4267 48.3467M41.8933 18.4267L90 2L138.107 18.4267M18.4267 48.3467L11.3867 58.9067L14.9067 72.9867M18.4267 48.3467L29.5733 53.04M14.9067 72.9867L29.5733 53.04M14.9067 72.9867L6.10667 115.227M6.10667 115.227L17.2533 151.6M6.10667 115.227L2 132.827L14.9067 176.827M17.2533 151.6L55.3867 186.8L90 237.84M17.2533 151.6L14.9067 176.827M90 237.84L14.9067 176.827M90 237.84L124.613 186.8L162.747 151.6M90 237.84L165.093 176.827M109.36 129.893L105.253 103.493M109.36 129.893L124.613 139.28M105.253 103.493L109.36 85.8933M105.253 103.493L112.293 91.1733L128.72 87.6533M105.253 103.493L122.853 99.3867L128.72 87.6533M109.36 85.8933L127.547 79.44M134.587 28.4L121.093 48.3467M134.587 28.4L138.107 18.4267M134.587 28.4L150.427 53.04M121.093 48.3467L127.547 79.44M121.093 48.3467L138.107 85.8933M127.547 79.44L138.107 85.8933M138.107 85.8933L140.453 109.36M138.107 85.8933L144.56 107.013M138.107 85.8933L128.72 87.6533M140.453 109.36L144.56 107.013M140.453 109.36V137.52M140.453 109.36L121.093 121.093L124.613 139.28M144.56 107.013L140.453 137.52M140.453 137.52L117.141 152.187M124.613 139.28L117.141 152.187M111.707 161.573L115.103 155.707M115.103 155.707L117.141 152.187M138.107 18.4267L150.427 23.7067L161.573 48.3467M161.573 48.3467L168.613 58.9067L165.093 72.9867M161.573 48.3467L150.427 53.04M165.093 72.9867L150.427 53.04M165.093 72.9867L173.893 115.227M173.893 115.227L162.747 151.6M173.893 115.227L178 132.827L165.093 176.827M162.747 151.6L165.093 176.827" stroke="#FF4E08" stroke-opacity="0.46" stroke-width="2"/>
</svg>
