<svg width="125" height="33" viewBox="0 0 125 33" fill="none" xmlns="http://www.w3.org/2000/svg">
<g clip-path="url(#clip0_10_1852)">
<path d="M13.9332 27.4659C14.0304 27.4659 14.1092 27.5447 14.1092 27.6419V32.7455C14.1092 32.8427 14.0304 32.9215 13.9332 32.9215H0.175983C0.0787904 32.9215 0 32.8427 0 32.7455V0.175983C0 0.0787904 0.0787905 0 0.175983 0H6.87861C6.97581 0 7.0546 0.0787899 7.0546 0.175983V27.2899C7.0546 27.3871 7.13339 27.4659 7.23058 27.4659H13.9332Z" fill="#FF4E08"/>
<path fill-rule="evenodd" clip-rule="evenodd" d="M17.7776 30.497C17.7776 30.5437 17.7961 30.5885 17.8291 30.6215L20.0776 32.8699C20.1106 32.9029 20.1553 32.9215 20.202 32.9215H32.6134C32.6601 32.9215 32.7048 32.9029 32.7378 32.8699L34.9863 30.6215C35.0193 30.5885 35.0378 30.5437 35.0378 30.497V2.42443C35.0378 2.37775 35.0193 2.33299 34.9863 2.29999L32.7378 0.0515444C32.7048 0.0185411 32.6601 0 32.6134 0H20.202C20.1553 0 20.1106 0.0185411 20.0776 0.0515443L17.8291 2.29999C17.7961 2.33299 17.7776 2.37775 17.7776 2.42443V30.497ZM28.4801 7.47727C28.5348 7.39511 28.6626 7.45163 28.6386 7.54742L27.0905 13.7399C27.0737 13.8073 27.1378 13.8667 27.2037 13.8447L30.4761 12.7539C30.5683 12.7232 30.668 12.773 30.6987 12.8652L31.3475 14.8114C31.3646 14.8629 31.357 14.9195 31.3269 14.9647L24.3406 25.4442C24.2858 25.5263 24.158 25.4698 24.182 25.374L25.7301 19.1815C25.747 19.1142 25.6828 19.0548 25.6169 19.0767L22.3445 20.1675C22.2523 20.1983 22.1527 20.1484 22.1219 20.0562L21.4732 18.1101C21.456 18.0585 21.4636 18.002 21.4937 17.9568L28.4801 7.47727Z" fill="#FF4E08"/>
<path d="M38.8823 5.45556C38.7851 5.45556 38.7063 5.37676 38.7063 5.27957V0.175983C38.7063 0.0787904 38.7851 0 38.8823 0H59.6941C59.7913 0 59.8701 0.0787906 59.8701 0.175984V5.27957C59.8701 5.37676 59.7913 5.45556 59.6941 5.45556H52.9915C52.8943 5.45556 52.8155 5.53435 52.8155 5.63154V32.7455C52.8155 32.8427 52.7367 32.9215 52.6395 32.9215H45.9369C45.8397 32.9215 45.7609 32.8427 45.7609 32.7455V5.63154C45.7609 5.53435 45.6821 5.45556 45.5849 5.45556H38.8823Z" fill="#FF4E08"/>
<path d="M119.462 28.4025V25.3111L116.436 19.7152V19.4022H118.38L120.167 22.7153L120.336 23.4588H120.584L120.767 22.7153L122.541 19.4022H124.445V19.7022L121.419 25.3111V28.4025H119.462Z" fill="white"/>
<path d="M86.9251 28.4025V21.0066H84.3946V19.4022H91.2818V21.0066H88.7643V28.4025H86.9251Z" fill="white"/>
<path d="M74.8789 28.4025V19.4022H80.9965V21.0588H76.8355V23.6414H80.4356V25.2067H76.8486V28.4025H74.8789Z" fill="white"/>
<path d="M69.82 28.5282C67.1953 28.5282 65.7529 26.8649 65.7529 23.9153C65.7529 20.9397 67.1953 19.2765 69.82 19.2765C72.4448 19.2765 73.8742 20.9397 73.8742 23.9153C73.8742 26.8649 72.4578 28.5282 69.82 28.5282ZM67.78 23.9153C67.78 25.8904 68.4817 26.9429 69.82 26.9429C71.1844 26.9429 71.8471 25.8774 71.8471 23.9023C71.8471 21.9013 71.1714 20.8487 69.82 20.8487C68.4817 20.8487 67.78 21.9013 67.78 23.9153Z" fill="white"/>
<path d="M95.9159 28.5282C93.2911 28.5282 91.8487 26.8649 91.8487 23.9153C91.8487 20.9397 93.2911 19.2765 95.9159 19.2765C98.5406 19.2765 99.97 20.9397 99.97 23.9153C99.97 26.8649 98.5536 28.5282 95.9159 28.5282ZM93.8758 23.9153C93.8758 25.8904 94.5775 26.9429 95.9159 26.9429C97.2802 26.9429 97.9429 25.8774 97.9429 23.9023C97.9429 21.9013 97.2672 20.8487 95.9159 20.8487C94.5775 20.8487 93.8758 21.9013 93.8758 23.9153Z" fill="white"/>
<path d="M101.226 28.4025V19.4022H104.722C107.579 19.4022 108.844 20.9283 108.844 23.9023C108.844 26.8763 107.579 28.4025 104.722 28.4025H101.226ZM103.183 26.8372H104.631C106.157 26.8372 106.796 25.8198 106.796 23.9023C106.796 21.9718 106.157 20.9674 104.631 20.9674H103.183V26.8372Z" fill="white"/>
<path d="M109.158 28.4025V28.1025L112.015 19.4022H114.702L117.558 28.0894V28.4025H115.693L115.197 26.8633H111.493L111.01 28.4025H109.158ZM111.962 25.3763H114.728L113.593 21.8283L113.449 20.9414H113.202L113.071 21.8283L111.962 25.3763Z" fill="white"/>
<path d="M117.421 13.645C115.166 13.645 113.902 12.7198 113.746 10.9347H115.701C115.844 11.8468 116.483 12.2898 117.499 12.2898C118.45 12.2898 119.076 11.8468 119.076 11.104C119.076 10.4786 118.685 10.1007 117.707 9.84008L116.118 9.47523C114.606 9.08431 113.889 8.23732 113.889 7.01245C113.889 5.42272 115.166 4.39331 117.421 4.39331C119.545 4.39331 120.77 5.3706 120.913 7.05154H118.984C118.841 6.11334 118.19 5.74849 117.369 5.74849C116.456 5.74849 115.909 6.1785 115.909 6.84306C115.909 7.37731 116.235 7.72913 117.043 7.95065L118.646 8.32854C120.418 8.78461 121.134 9.65765 121.134 10.8956C121.134 12.6156 119.753 13.645 117.421 13.645Z" fill="white"/>
<path d="M105.676 13.5193V4.51901H109.733C111.898 4.51901 112.811 5.45817 112.811 6.87996C112.811 7.91043 112.263 8.69306 111.467 8.96698L110.75 8.90176V9.11047C112.054 9.2409 112.707 9.8931 112.707 11.2888V12.3975C112.707 12.7758 112.72 13.0497 112.928 13.2454V13.5193H110.959C110.776 13.3106 110.698 12.9975 110.698 12.5671V11.4584C110.698 10.5714 110.333 10.1279 109.224 10.1279H107.633V13.5193H105.676ZM107.633 8.66697H109.211C110.333 8.66697 110.789 8.10609 110.789 7.31041C110.789 6.4756 110.372 5.96689 109.211 5.96689H107.633V8.66697Z" fill="white"/>
<path d="M89.4227 13.5193V4.51901H92.9185C95.7751 4.51901 97.0403 6.04515 97.0403 9.01916C97.0403 11.9932 95.7751 13.5193 92.9185 13.5193H89.4227ZM91.3793 11.954H92.8271C94.3533 11.954 94.9924 10.9366 94.9924 9.01916C94.9924 7.08866 94.3533 6.08428 92.8271 6.08428H91.3793V11.954Z" fill="white"/>
<path d="M80.083 13.5193V13.2193L82.9396 4.51901H85.6267L88.4833 13.2063V13.5193H86.618L86.1223 11.9801H82.4179L81.9352 13.5193H80.083ZM82.8874 10.4931H85.6527L84.5179 6.94518L84.3744 6.05819H84.1266L83.9962 6.94518L82.8874 10.4931Z" fill="white"/>
<path d="M72.9557 13.5193V4.51901H79.0733V6.07124H74.7688V8.18435H78.4472V9.65831H74.7688V11.9801H79.1385V13.5193H72.9557Z" fill="white"/>
<path d="M98.1716 13.5193V4.51901H104.289V6.07124H99.9847V8.18435H103.663V9.65831H99.9847V11.9801H104.354V13.5193H98.1716Z" fill="white"/>
<path d="M65.7529 13.5194V4.51901H67.7095V11.7715H71.6358V13.5194H65.7529Z" fill="white"/>
</g>
<defs>
<clipPath id="clip0_10_1852">
<rect width="124.445" height="32.9215" fill="white"/>
</clipPath>
</defs>
</svg>
