<svg width="110" height="197" viewBox="0 0 110 197" fill="none" xmlns="http://www.w3.org/2000/svg">
<path d="M52.6207 62.7637L68.1752 0.545654L1.63647 100.354L13.8196 118.472L40.9548 109.427L32.672 142.558L25.4003 171.645L48.2543 137.364L53.9725 128.787L84.9186 82.3679L91.9391 71.8372L85.2852 51.8755L77.5857 54.442L52.6207 62.7637Z" fill="#FF4E08"/>
<path d="M52.6207 62.7637L51.6786 62.5282L52.9278 63.685L52.6207 62.7637ZM68.1752 0.545654L68.9811 0.00377303L67.3672 0.00697505L68.1752 0.545654ZM1.63647 100.354L0.828456 99.8151L0.715191 100.661L1.63647 100.354ZM8.29035 120.315L7.36907 120.622L7.48448 120.857L8.29035 120.315ZM40.9548 109.427L41.8969 109.663L40.6477 108.506L40.9548 109.427ZM25.4003 171.645L24.4582 171.41L24.5944 172.187L25.4003 171.645ZM85.2852 51.8755L86.091 51.3337L84.9781 50.9543L85.2852 51.8755ZM84.8574 25.3551L85.7995 25.5906L85.6633 24.8132L84.8574 25.3551ZM24.9726 145.125L24.1667 145.667L25.2797 146.046L24.9726 145.125ZM42.0825 196.455L41.2766 196.997L42.8905 196.993L42.0825 196.455ZM108.621 96.6466L109.429 97.1853L109.543 96.3395L108.621 96.6466ZM101.967 76.685L102.889 76.3779L102.773 76.1431L101.967 76.685ZM84.9186 82.3679L85.7266 82.9066L84.9186 82.3679ZM53.9725 128.787L53.1645 128.248L53.9725 128.787ZM48.2543 137.364L49.0624 137.903L48.2543 137.364ZM53.5628 62.9992L69.1173 0.781185L67.2331 0.310124L51.6786 62.5282L53.5628 62.9992ZM67.3672 0.00697505L0.828456 99.8151L2.44449 100.892L68.9832 1.08433L67.3672 0.00697505ZM0.715191 100.661L7.36907 120.622L9.21163 120.008L2.55776 100.047L0.715191 100.661ZM92.8603 71.5301L86.2065 51.5684L84.3639 52.1826L91.0178 72.1443L92.8603 71.5301ZM12.9238 118.847L24.0767 145.5L25.8684 144.75L14.7155 118.097L12.9238 118.847ZM109.543 96.3395L102.889 76.3779L101.046 76.9921L107.7 96.9537L109.543 96.3395ZM42.8905 196.993L109.429 97.1853L107.813 96.1079L41.2745 195.916L42.8905 196.993ZM67.3693 1.08754L84.0516 25.897L85.6633 24.8132L68.9811 0.00377303L67.3693 1.08754ZM25.7784 144.583L9.09622 119.774L7.48448 120.857L24.1667 145.667L25.7784 144.583ZM42.8884 195.913L26.2062 171.103L24.5944 172.187L41.2766 196.997L42.8884 195.913ZM84.4793 52.4174L101.162 77.2269L102.773 76.1431L86.091 51.3337L84.4793 52.4174ZM91.1332 72.3791L107.815 97.1885L109.427 96.1047L92.7449 71.2953L91.1332 72.3791ZM84.1105 81.8293L53.1645 128.248L54.7806 129.326L85.7266 82.9066L84.1105 81.8293ZM85.7266 82.9066L92.7471 72.3759L91.131 71.2985L84.1105 81.8293L85.7266 82.9066ZM14.6255 117.93L2.44235 99.8119L0.8306 100.896L13.0138 119.014L14.6255 117.93ZM52.9278 63.685L77.8928 55.3633L77.2786 53.5207L52.3136 61.8424L52.9278 63.685ZM78.5278 54.6776L85.7995 25.5906L83.9153 25.1196L76.6436 54.2065L78.5278 54.6776ZM84.9781 50.9543L77.2786 53.5207L77.8928 55.3633L85.5923 52.7968L84.9781 50.9543ZM47.4463 136.826L24.5923 171.107L26.2083 172.184L49.0624 137.903L47.4463 136.826ZM49.0624 137.903L54.7806 129.326L53.1645 128.248L47.4463 136.826L49.0624 137.903ZM40.6477 108.506L13.5125 117.551L14.1267 119.394L41.2619 110.349L40.6477 108.506ZM33.6142 142.794L41.8969 109.663L40.0127 109.192L31.7299 142.323L33.6142 142.794ZM25.2797 146.046L32.9791 143.48L32.365 141.637L24.6655 144.204L25.2797 146.046ZM31.7299 142.323L24.4582 171.41L26.3424 171.881L33.6142 142.794L31.7299 142.323Z" fill="#FF4E08"/>
</svg>
