<svg width="20" height="17" viewBox="0 0 20 17" fill="none" xmlns="http://www.w3.org/2000/svg">
<path fill-rule="evenodd" clip-rule="evenodd" d="M0.84235 1.76484C1.38326 1.22392 2.11689 0.920044 2.88186 0.920044H16.3419C17.1069 0.920044 17.8405 1.22392 18.3814 1.76484C18.9223 2.30575 19.2262 3.03938 19.2262 3.80434V6.68864C19.2262 6.94363 19.1249 7.18817 18.9446 7.36847C18.7643 7.54878 18.5198 7.65007 18.2648 7.65007C18.0098 7.65007 17.7652 7.75136 17.5849 7.93167C17.4046 8.11197 17.3033 8.35652 17.3033 8.6115C17.3033 8.86649 17.4046 9.11103 17.5849 9.29134C17.7652 9.47164 18.0098 9.57294 18.2648 9.57294C18.7958 9.57294 19.2262 10.0034 19.2262 10.5344V13.4187C19.2262 14.1836 18.9223 14.9173 18.3814 15.4582C17.8405 15.9991 17.1069 16.303 16.3419 16.303H2.88186C2.11689 16.303 1.38326 15.9991 0.84235 15.4582C0.301439 14.9173 -0.00244141 14.1836 -0.00244141 13.4187V10.5344C-0.00244141 10.0034 0.428007 9.57294 0.958991 9.57294C1.21398 9.57294 1.45852 9.47164 1.63883 9.29134C1.81913 9.11103 1.92042 8.86649 1.92042 8.6115C1.92042 8.35652 1.81913 8.11197 1.63883 7.93167C1.45852 7.75136 1.21398 7.65007 0.958991 7.65007C0.428007 7.65007 -0.00244141 7.21962 -0.00244141 6.68864V3.80434C-0.00244141 3.03938 0.301439 2.30575 0.84235 1.76484ZM13.4576 14.3801V13.4187C13.4576 12.8877 13.0272 12.4572 12.4962 12.4572C11.9652 12.4572 11.5347 12.8877 11.5347 13.4187V14.3801H2.88186C2.62687 14.3801 2.38232 14.2788 2.20202 14.0985C2.02172 13.9182 1.92042 13.6737 1.92042 13.4187V11.3308C2.32221 11.1888 2.69141 10.9581 2.9985 10.651C3.53941 10.1101 3.84329 9.37647 3.84329 8.6115C3.84329 7.84654 3.53941 7.11291 2.9985 6.572C2.69141 6.26491 2.32221 6.03422 1.92042 5.89216V3.80434C1.92042 3.54935 2.02172 3.30481 2.20202 3.12451C2.38232 2.9442 2.62687 2.84291 2.88186 2.84291H11.5347V3.80434C11.5347 4.33533 11.9652 4.76577 12.4962 4.76577C13.0272 4.76577 13.4576 4.33533 13.4576 3.80434V2.84291H16.3419C16.5969 2.84291 16.8414 2.9442 17.0217 3.12451C17.202 3.30481 17.3033 3.54935 17.3033 3.80434V5.89216C16.9016 6.03422 16.5324 6.26491 16.2253 6.572C15.6844 7.11291 15.3805 7.84654 15.3805 8.6115C15.3805 9.37647 15.6844 10.1101 16.2253 10.651C16.5324 10.9581 16.9016 11.1888 17.3033 11.3308V13.4187C17.3033 13.6737 17.202 13.9182 17.0217 14.0985C16.8414 14.2788 16.5969 14.3801 16.3419 14.3801H13.4576ZM12.4962 6.68864C13.0272 6.68864 13.4576 7.11909 13.4576 7.65007V9.57294C13.4576 10.1039 13.0272 10.5344 12.4962 10.5344C11.9652 10.5344 11.5347 10.1039 11.5347 9.57294V7.65007C11.5347 7.11909 11.9652 6.68864 12.4962 6.68864Z" fill="white"/>
</svg>
