<svg width="283" height="97" viewBox="0 0 283 97" fill="none" xmlns="http://www.w3.org/2000/svg">
<g clip-path="url(#clip0_256_98)">
<path d="M1 26.4294V32.3173H3.92624H12.7756V35.2435V67.6442H15.7019H24.5513V32.3173H36.3269V29.3557V26.4294H1Z" fill="#D9D9D9"/>
<path d="M39.2532 35.2435V29.3557L36.3269 26.4294M39.2532 35.2435H27.4775M39.2532 35.2435L36.3269 32.3173M36.3269 26.4294H1V32.3173M36.3269 26.4294V29.3557V32.3173M27.4775 35.2435V70.5704M27.4775 35.2435L24.5513 32.3173M36.3269 32.3173H24.5513M27.4775 70.5704H15.7019L12.7756 67.6442M27.4775 70.5704L24.5513 67.6442M24.5513 32.3173V67.6442M12.7756 67.6442H15.7019H24.5513M12.7756 67.6442V35.2435M1 32.3173L3.92624 35.2435H12.7756M1 32.3173H3.92624H12.7756V35.2435" stroke="white" stroke-width="0.412147"/>
<path fill-rule="evenodd" clip-rule="evenodd" d="M75.4109 42.2143V36.3265H81.2987V30.4387H87.1864V15.7017V12.7755H84.2249H81.2987V9.81396V6.88775H78.3372H75.4109V3.92621V1H45.9722V42.2143H48.8984H75.4109ZM69.5232 12.7755H72.4494H75.4109V15.7017V30.4387H69.5232V36.3265H60.6739H57.7477V6.88775H69.5232V9.81396V12.7755Z" fill="#D9D9D9"/>
<path fill-rule="evenodd" clip-rule="evenodd" d="M93.0742 12.7755V42.2143H96.0004H104.85V30.4387H122.513V33.365V42.2143H125.439H134.289V15.7017V12.7755H131.327H128.401V9.81396V6.88775H125.439H122.513V3.92621V1H104.85V6.88775H98.9619V12.7755H93.0742ZM116.625 12.7755H119.552H122.513V15.7017V24.551H107.776H104.85V12.7755H110.738V6.88775H116.625V9.81396V12.7755Z" fill="#D9D9D9"/>
<path fill-rule="evenodd" clip-rule="evenodd" d="M140.176 1V42.2143H143.102H151.952V24.551H157.84V27.4772V30.4387H160.766H163.727V33.365V36.3265H166.653H169.615V39.2527V42.2143H172.541H181.391V39.2527V36.3265H178.429H175.503V33.365V30.4387H172.541H169.615V24.551H175.503V18.6633H181.391V9.81396V6.88775H178.429H175.503V3.92621V1H140.176ZM151.952 6.88775H169.615V9.81396V18.6633H154.878H151.952V6.88775Z" fill="#D9D9D9"/>
<path d="M187.278 1V42.2143H190.205H228.493V39.2527V36.3265H201.98H199.054V24.551H216.717V21.5895V18.6633H201.98H199.054V6.88775H228.493V3.92621V1H187.278Z" fill="#D9D9D9"/>
<path d="M60.6739 9.81396V36.3265M60.6739 9.81396H69.5232M60.6739 9.81396L57.7477 6.88775M60.6739 36.3265H57.7477V6.88775M60.6739 36.3265H69.5232V30.4387H75.4109V15.7017M69.5232 9.81396V12.7755M69.5232 9.81396V6.88775H57.7477M78.3372 39.2527V45.1405M78.3372 39.2527H84.2249M78.3372 39.2527L75.4109 36.3265M78.3372 45.1405H48.8984L45.9722 42.2143M78.3372 45.1405L75.4109 42.2143M84.2249 39.2527V33.365M84.2249 39.2527L81.2987 36.3265M75.4109 36.3265V42.2143M75.4109 36.3265H81.2987M45.9722 42.2143H48.8984H75.4109M45.9722 42.2143V1H75.4109M90.1127 33.365V15.7017L87.1864 12.7755M90.1127 33.365H84.2249M90.1127 33.365L87.1864 30.4387M87.1864 12.7755V15.7017V30.4387M87.1864 12.7755H84.2249M84.2249 33.365L81.2987 30.4387M87.1864 30.4387H81.2987M81.2987 30.4387V36.3265M113.664 9.81396V15.7017M113.664 9.81396H116.625M113.664 9.81396L110.738 6.88775M113.664 15.7017H107.776M113.664 15.7017L110.738 12.7755M116.625 9.81396V12.7755M116.625 9.81396V6.88775H110.738M110.738 6.88775V12.7755M107.776 15.7017V24.551M107.776 15.7017L104.85 12.7755M110.738 12.7755H104.85M107.776 24.551H104.85V12.7755M107.776 24.551H122.513V15.7017M137.215 45.1405V15.7017L134.289 12.7755M137.215 45.1405H125.439L122.513 42.2143M137.215 45.1405L134.289 42.2143M134.289 12.7755V15.7017V42.2143M134.289 12.7755H131.327M122.513 42.2143H125.439H134.289M122.513 42.2143V33.365M107.776 33.365V45.1405M107.776 33.365H122.513M107.776 33.365L104.85 30.4387M107.776 45.1405H96.0004L93.0742 42.2143M107.776 45.1405L104.85 42.2143M122.513 33.365V30.4387H104.85M104.85 30.4387V42.2143M93.0742 42.2143V12.7755H98.9619V6.88775H104.85V1H122.513M93.0742 42.2143H96.0004H104.85M184.317 21.5895V9.81396L181.391 6.88775M184.317 21.5895H178.429M184.317 21.5895L181.391 18.6633M181.391 6.88775V9.81396V18.6633M181.391 6.88775H178.429M178.429 21.5895V27.4772M178.429 21.5895L175.503 18.6633M181.391 18.6633H175.503M178.429 27.4772H172.541M178.429 27.4772L175.503 24.551M175.503 18.6633V24.551M172.541 27.4772V30.4387M172.541 27.4772L169.615 24.551M175.503 24.551H169.615M172.541 30.4387H169.615V24.551M172.541 30.4387H175.503M184.317 45.1405V39.2527L181.391 36.3265M184.317 45.1405H172.541L169.615 42.2143M184.317 45.1405L181.391 42.2143M181.391 36.3265V39.2527V42.2143M181.391 36.3265H178.429M169.615 42.2143H172.541H181.391M169.615 42.2143V39.2527M154.878 27.4772V45.1405M154.878 27.4772H157.84M154.878 27.4772L151.952 24.551M154.878 45.1405H143.102L140.176 42.2143M154.878 45.1405L151.952 42.2143M157.84 27.4772V30.4387M157.84 27.4772V24.551H151.952M151.952 24.551V42.2143M140.176 42.2143V1H175.503M140.176 42.2143H143.102H151.952M154.878 9.81396H169.615M154.878 9.81396V18.6633M154.878 9.81396L151.952 6.88775M169.615 9.81396V6.88775H151.952M169.615 9.81396V18.6633H154.878M154.878 18.6633H151.952V6.88775M231.419 9.81396V3.92621L228.493 1M231.419 9.81396H201.98M231.419 9.81396L228.493 6.88775M228.493 1H187.278V42.2143M228.493 1V3.92621V6.88775M201.98 9.81396V18.6633M201.98 9.81396L199.054 6.88775M228.493 6.88775H199.054M201.98 18.6633H199.054V6.88775M201.98 18.6633H216.717M219.643 27.4772V21.5895L216.717 18.6633M219.643 27.4772H201.98M219.643 27.4772L216.717 24.551M216.717 18.6633V21.5895V24.551M201.98 27.4772V36.3265M201.98 27.4772L199.054 24.551M216.717 24.551H199.054M201.98 36.3265H199.054V24.551M201.98 36.3265H228.493M231.419 45.1405V39.2527L228.493 36.3265M231.419 45.1405H190.205L187.278 42.2143M231.419 45.1405L228.493 42.2143M228.493 36.3265V39.2527V42.2143M187.278 42.2143H190.205H228.493M69.5232 12.7755L72.4494 15.7017H75.4109M69.5232 12.7755H72.4494H75.4109V15.7017M75.4109 1L78.3372 3.92621V6.88775M75.4109 1V3.92621V6.88775H78.3372M78.3372 6.88775H81.2987M81.2987 6.88775L84.2249 9.81396V12.7755M81.2987 6.88775V9.81396V12.7755H84.2249M116.625 12.7755L119.552 15.7017H122.513M116.625 12.7755H119.552H122.513V15.7017M122.513 1L125.439 3.92621V6.88775M122.513 1V3.92621V6.88775H125.439M125.439 6.88775H128.401M128.401 6.88775L131.327 9.81396V12.7755M128.401 6.88775V9.81396V12.7755H131.327M175.503 1L178.429 3.92621V6.88775M175.503 1V3.92621V6.88775H178.429M175.503 30.4387L178.429 33.365V36.3265M175.503 30.4387V33.365V36.3265H178.429M169.615 39.2527H166.653L163.727 36.3265M169.615 39.2527V36.3265H166.653H163.727M163.727 36.3265V33.365M163.727 33.365H160.766L157.84 30.4387M163.727 33.365V30.4387H160.766H157.84" stroke="white" stroke-width="0.412142"/>
<path fill-rule="evenodd" clip-rule="evenodd" d="M87.1865 60.6733V57.7471H84.225H81.2988V54.7856V51.8594H45.9722V93.0736H48.8984H57.7478V75.4104H81.2988V69.5226H87.1865V60.6733ZM57.7478 57.7471H75.411V60.6733V69.5226H60.674H57.7478V57.7471Z" fill="#D9D9D9"/>
<path d="M93.0742 51.8594V93.0736H96.0004H134.288V90.1121V87.1859H107.776H104.85V54.7856V51.8594H93.0742Z" fill="#D9D9D9"/>
<path fill-rule="evenodd" clip-rule="evenodd" d="M140.176 63.6349V93.0736H143.102H151.952V81.2981H169.615V84.2243V93.0736H172.541H181.39V66.5611V63.6349H178.429H175.503V60.6733V57.7471H172.541H169.615V54.7856V51.8594H151.952V57.7471H146.064V63.6349H140.176ZM163.727 63.6349H166.653H169.615V66.5611V75.4104H154.878H151.952V63.6349H157.839V57.7471H163.727V60.6733V63.6349Z" fill="#D9D9D9"/>
<path d="M193.166 51.8594V69.5226H196.092H199.054V72.4488V75.4104H201.98H204.942V78.3366V93.0736H207.868H216.717V75.4104H222.605V69.5226H228.492V54.7856V51.8594H216.717V69.5226H207.868H204.942V54.7856V51.8594H193.166Z" fill="#D9D9D9"/>
<path d="M90.1127 72.4488V60.6733L87.1865 57.7471M90.1127 72.4488H84.225M90.1127 72.4488L87.1865 69.5226M87.1865 57.7471V60.6733V69.5226M87.1865 57.7471H84.225M84.225 72.4488V78.3366M84.225 72.4488L81.2988 69.5226M87.1865 69.5226H81.2988M84.225 78.3366H60.674M84.225 78.3366L81.2988 75.4104M81.2988 69.5226V75.4104M60.674 78.3366V95.9998M60.674 78.3366L57.7478 75.4104M81.2988 75.4104H57.7478M60.674 95.9998H48.8984L45.9722 93.0736M60.674 95.9998L57.7478 93.0736M57.7478 75.4104V93.0736M45.9722 93.0736H48.8984H57.7478M45.9722 93.0736V51.8594H81.2988M60.674 60.6733H75.411M60.674 60.6733V69.5226M60.674 60.6733L57.7478 57.7471M75.411 60.6733V57.7471H57.7478M75.411 60.6733V69.5226H60.674M60.674 69.5226H57.7478V57.7471M137.215 95.9998V90.1121L134.288 87.1859M137.215 95.9998H96.0004L93.0742 93.0736M137.215 95.9998L134.288 93.0736M134.288 87.1859V90.1121V93.0736M134.288 87.1859H107.776M93.0742 93.0736V51.8594H104.85M93.0742 93.0736H96.0004H134.288M160.766 60.6733V66.5611M160.766 60.6733H163.727M160.766 60.6733L157.839 57.7471M160.766 66.5611H154.878M160.766 66.5611L157.839 63.6349M163.727 60.6733V63.6349M163.727 60.6733V57.7471H157.839M157.839 57.7471V63.6349M154.878 66.5611V75.4104M154.878 66.5611L151.952 63.6349M157.839 63.6349H151.952M154.878 75.4104H151.952V63.6349M154.878 75.4104H169.615V66.5611M184.317 95.9998V66.5611L181.39 63.6349M184.317 95.9998H172.541L169.615 93.0736M184.317 95.9998L181.39 93.0736M181.39 63.6349V66.5611V93.0736M181.39 63.6349H178.429M169.615 93.0736H172.541H181.39M169.615 93.0736V84.2243M154.878 84.2243V95.9998M154.878 84.2243H169.615M154.878 84.2243L151.952 81.2981M154.878 95.9998H143.102L140.176 93.0736M154.878 95.9998L151.952 93.0736M169.615 84.2243V81.2981H151.952M151.952 81.2981V93.0736M140.176 93.0736V63.6349H146.064V57.7471H151.952V51.8594H169.615M140.176 93.0736H143.102H151.952M231.419 72.4488V54.7856L228.492 51.8594M231.419 72.4488H225.531M231.419 72.4488L228.492 69.5226M228.492 51.8594H216.717V69.5226H207.868M228.492 51.8594V54.7856V69.5226M225.531 72.4488V78.3366M225.531 72.4488L222.605 69.5226M228.492 69.5226H222.605M225.531 78.3366H219.643M225.531 78.3366L222.605 75.4104M222.605 69.5226V75.4104M219.643 78.3366V95.9998M219.643 78.3366L216.717 75.4104M222.605 75.4104H216.717M219.643 95.9998H207.868L204.942 93.0736M219.643 95.9998L216.717 93.0736M216.717 75.4104V93.0736M204.942 93.0736H207.868H216.717M204.942 93.0736V78.3366M84.225 57.7471V54.7856L81.2988 51.8594M84.225 57.7471H81.2988V54.7856V51.8594M104.85 51.8594L107.776 54.7856V87.1859M104.85 51.8594V54.7856V87.1859H107.776M163.727 63.6349L166.653 66.5611H169.615M163.727 63.6349H166.653H169.615V66.5611M169.615 51.8594L172.541 54.7856V57.7471M169.615 51.8594V54.7856V57.7471H172.541M172.541 57.7471H175.503M175.503 57.7471L178.429 60.6733V63.6349M175.503 57.7471V60.6733V63.6349H178.429M193.166 69.5226V51.8594H204.942M193.166 69.5226L196.092 72.4488H199.054M193.166 69.5226H196.092H199.054V72.4488M204.942 51.8594L207.868 54.7856V69.5226M204.942 51.8594V54.7856V69.5226H207.868M199.054 72.4488V75.4104M204.942 78.3366H201.98L199.054 75.4104M204.942 78.3366V75.4104H201.98H199.054" stroke="white" stroke-width="0.412142"/>
<path fill-rule="evenodd" clip-rule="evenodd" d="M238.138 32.3173V61.7564H241.064H244.026V64.6826V67.6442H246.952H273.465V61.7564H279.352V35.2435V32.3173H276.391H273.465V29.3557V26.4294H244.026V32.3173H238.138ZM261.588 34.1739L259.365 43.3734L260.788 42.8828L263.329 42.0066L264.034 41.7635L264.985 44.715L264.442 45.5582L259.951 52.5263L259.201 53.6898L255.474 59.4725L256.66 54.566L257.698 50.273L255.547 51.0144L254.516 51.37L253.029 51.8829L252.078 48.9314L261.588 34.1739Z" fill="#D9D9D9"/>
<path d="M282.279 64.6826V35.2435L279.352 32.3173M282.279 64.6826H276.391M282.279 64.6826L279.352 61.7564M279.352 32.3173V35.2435V61.7564M279.352 32.3173H276.391M276.391 64.6826V70.5704M276.391 64.6826L273.465 61.7564M279.352 61.7564H273.465M276.391 70.5704H246.952L244.026 67.6442M276.391 70.5704L273.465 67.6442M273.465 61.7564V67.6442M244.026 67.6442H246.952H273.465M244.026 67.6442V64.6826M238.138 61.7564V32.3173H244.026V26.4294H273.465M238.138 61.7564H241.064H244.026V64.6826M238.138 61.7564L241.064 64.6826H244.026M273.465 26.4294V29.3557V32.3173H276.391M273.465 26.4294L276.391 29.3557V32.3173M259.365 43.3734L261.588 34.1739L252.078 48.9314M259.365 43.3734L260.788 42.8828L263.329 42.0066L264.034 41.7635L264.985 44.715L264.442 45.5582M259.365 43.3734L260.038 44.0463M252.078 48.9314L253.029 51.8829L254.516 51.37M252.078 48.9314L254.516 51.37M264.442 45.5582L262.291 46.2996L260.038 44.0463M264.442 45.5582L259.951 52.5263M260.038 44.0463L255.547 51.0144M254.516 51.37L255.547 51.0144M257.698 50.273L255.547 51.0144M257.698 50.273L256.66 54.566L255.474 59.4725L259.201 53.6898L259.951 52.5263M257.698 50.273L259.951 52.5263" stroke="white" stroke-width="0.412147"/>
</g>
<defs>
<clipPath id="clip0_256_98">
<rect width="283" height="97" fill="white"/>
</clipPath>
</defs>
</svg>
